HIERARCHY
ROOT Hips
{
	OFFSET 0.00000 0.00000 0.00000
	CHANNELS 6 Xposition Yposition Zposition Zrotation Yrotation Xrotation 
	JOINT LHipJoint
	{
		OFFSET 0 0 0
		CHANNELS 3 Zrotation Yrotation Xrotation
		JOINT LeftHip
		{
			OFFSET 1.77779 -1.88989 0.48267
			CHANNELS 3 Zrotation Yrotation Xrotation
			JOINT LeftKnee
			{
				OFFSET 2.53442 -6.96327 0.00000
				CHANNELS 3 Zrotation Yrotation Xrotation
				JOINT LeftAnkle
				{
					OFFSET 2.71068 -7.44755 0.00000
					CHANNELS 3 Zrotation Yrotation Xrotation
					JOINT LeftToe
					{
						OFFSET 0.17992 -0.49431 2.22524
						CHANNELS 3 Zrotation Yrotation Xrotation
						End Site
						{
							OFFSET 0.00000 -0.00000 1.14687
						}
					}
				}
			}
		}
	}
	JOINT RHipJoint
	{
		OFFSET 0 0 0
		CHANNELS 3 Zrotation Yrotation Xrotation
		JOINT RightHip
		{
			OFFSET -1.58469 -1.88989 0.48267
			CHANNELS 3 Zrotation Yrotation Xrotation
			JOINT RightKnee
			{
				OFFSET -2.60386 -7.15404 0.00000
				CHANNELS 3 Zrotation Yrotation Xrotation
				JOINT RightAnkle
				{
					OFFSET -2.73334 -7.50979 0.00000
					CHANNELS 3 Zrotation Yrotation Xrotation
					JOINT RightToe
					{
						OFFSET -0.25618 -0.70384 2.21822
						CHANNELS 3 Zrotation Yrotation Xrotation
						End Site
						{
							OFFSET -0.00000 -0.00000 1.16381
						}
					}
				}
			}
		}
	}
	JOINT lowerback
	{
		OFFSET 0 0 0
		CHANNELS 3 Zrotation Yrotation Xrotation
		JOINT Chest
		{
			OFFSET 0.03410 2.01612 -0.22230
			CHANNELS 3 Zrotation Yrotation Xrotation
			JOINT Chest2
			{
				OFFSET 0.03465 2.03012 0.00937
				CHANNELS 3 Zrotation Yrotation Xrotation
				JOINT lowerneck
				{
					OFFSET 0 0 0
					CHANNELS 3 Zrotation Yrotation Xrotation
					JOINT Neck
					{
						OFFSET -0.00219 1.70459 0.20857
						CHANNELS 3 Zrotation Yrotation Xrotation
						JOINT Head
						{
							OFFSET 0.02518 1.72339 -0.22179
							CHANNELS 3 Zrotation Yrotation Xrotation
							End Site
							{
								OFFSET 0.00282 1.74122 -0.09823
							}
						}
					}
				}
				JOINT LeftCollar
				{
					OFFSET 0 0 0
					CHANNELS 3 Zrotation Yrotation Xrotation
					JOINT LeftShoulder
					{
						OFFSET 3.36358 1.00547 -0.37661
CHANNELS 3 Zrotation Xrotation Yrotation
						JOINT LeftElbow
						{
OFFSET 0 -5.065070 0.000000
CHANNELS 3 Zrotation Xrotation Yrotation
							JOINT LeftWrist
							{
OFFSET 0 -3.601960 0.000000
CHANNELS 3 Zrotation Xrotation Yrotation
								JOINT lhand
								{
									OFFSET 0 0 0
CHANNELS 3 Zrotation Xrotation Yrotation
									JOINT LFingers
									{
OFFSET 0 -0.450350 0.000000
CHANNELS 3 Zrotation Xrotation Yrotation
										End Site
										{
OFFSET 0 -0.363080 0.000000
										}
									}
								}
								JOINT LThumb
								{
OFFSET 0 0.000000 0.000000
CHANNELS 3 Zrotation Xrotation Yrotation
									End Site
									{
OFFSET 0 -0.368620 0.368620
									}
								}
							}
						}
					}
				}
				JOINT RightCollar
				{
					OFFSET 0 0 0
					CHANNELS 3 Zrotation Yrotation Xrotation
					JOINT RightShoulder
					{
						OFFSET -3.50159 0.80383 -0.71526
CHANNELS 3 Zrotation Xrotation Yrotation
						JOINT RightElbow
						{
OFFSET 0 -5.363940 0.000000
CHANNELS 3 Zrotation Xrotation Yrotation
							JOINT RightWrist
							{
OFFSET 0 -3.580350 0.000000
CHANNELS 3 Zrotation Xrotation Yrotation
								JOINT rhand
								{
									OFFSET 0 0 0
CHANNELS 3 Zrotation Xrotation Yrotation
									JOINT RFingers
									{
OFFSET 0 -0.663750 0.000000
CHANNELS 3 Zrotation Xrotation Yrotation
										End Site
										{
OFFSET 0 -0.535130 0.000000
										}
									}
								}
								JOINT RThumb
								{
OFFSET 0 0.000000 0.000000
CHANNELS 3 Zrotation Xrotation Yrotation
									End Site
									{
OFFSET 0 -0.543300 0.543300
									}
								}
							}
						}
					}
				}
			}
		}
	}
}
MOTION
Frames: 12
Frame Time: .0083333
11.4406 17.9104 23.8265 -368.9600 -94.9514 370.6330 0.0000 0.0000 0.0000 -11.3458 -2.2688 -7.6123 1.3224 7.2829 20.5561 0.4467 -3.1840 -11.9352 1.0008 -6.3662 -17.8506 0.0000 0.0000 0.0000 4.1088 20.4378 -7.4591 -2.6685 -10.1380 29.4248 0.8124 -19.8753 -20.4466 -0.8606 -5.9159 16.5405 0.4986 -1.5454 10.8493 2.3247 -1.9551 1.3974 2.4323 -0.9897 -4.5566 -3.1075 -1.8890 -11.1619 -0.8418 -3.5734 36.2891 -0.4832 -2.6561 14.3508 -0.0000 0.0000 0.0000 6.5077 2.9289 -24.4454 17.9639 -28.1109 4.5322 28.5338 1.855 -14.5301 0.0 0.0 0.0 -7.1250 0.0 0.0 0.9678 46.4138 -0.0338 -0.0000 0.0000 0.0000 -10.0402 0.418 6.3658 -23.1817 -34.287 -7.2404 -26.2173 -10.4147 -24.7353 0.0 0.0 0.0 7.1250 0.0 -0.0 1.9886 2.8124 1.8898
11.4401 17.9046 23.9540 -369.2280 -94.4763 371.0470 0.0000 0.0000 0.0000 -11.7994 -2.4764 -8.1317 1.3785 7.4296 20.9944 0.4676 -2.9458 -12.2420 1.3432 -7.3378 -20.7201 0.0000 0.0000 0.0000 4.2389 20.0541 -7.8335 -2.7428 -10.2666 29.8446 1.2956 -21.9847 -18.9837 -0.7848 -5.6555 15.7880 1.2216 -1.5557 10.6814 2.0536 -1.8962 1.3827 1.7277 -0.9730 -4.5133 -3.2161 -2.1053 -11.3166 -0.5554 -3.9495 36.3229 -0.4079 -2.7864 14.4180 0.0000 0.0000 0.0000 7.0626 2.5253 -25.069 18.0097 -28.1695 4.5538 27.9447 1.4431 -14.4483 0.0 0.0 0.0 -7.1250 0.0 0.0 0.4172 46.239 -0.0128 0.0000 0.0000 0.0000 -9.3045 0.7635 5.3103 -23.1651 -34.2689 -7.2311 -25.9856 -9.5801 -25.085 0.0 0.0 0.0 7.1250 0.0 -0.0 2.1770 2.4883 2.082
11.4388 17.9027 24.0790 -365.3410 -94.1268 367.0770 0.0000 0.0000 0.0000 -12.0088 -2.5272 -8.4794 1.4623 7.6424 21.6332 0.5013 -2.3981 -12.7648 2.0002 -8.8665 -25.3788 0.0000 0.0000 0.0000 4.8271 20.1168 -7.8083 -2.8225 -10.4019 30.2884 1.4378 -23.1163 -20.0639 -1.2591 -7.1132 20.0512 2.1248 -1.5295 10.7883 1.9057 -1.7617 1.4096 1.0494 -0.9235 -4.5786 -3.2709 -2.2730 -11.4490 -0.3883 -4.2408 36.4418 -0.3803 -2.8930 14.5157 0.0000 0.0000 0.0000 7.5753 2.3016 -25.9325 18.1909 -28.4009 4.6397 29.9519 2.0871 -14.8555 0.0 0.0 0.0 -7.1250 0.0 0.0 2.2920 46.9875 -0.1125 0.0000 0.0000 0.0000 -8.7118 1.2034 4.4639 -23.1506 -34.253 -7.2229 -25.5842 -8.7323 -25.2466 0.0 0.0 0.0 7.1250 0.0 -0.0 2.4421 2.4002 2.3399
11.4481 17.9088 24.1866 -357.4780 -93.8570 359.3240 0.0000 0.0000 0.0000 -11.7647 -2.6540 -9.1385 1.5641 7.8920 22.3865 0.5239 -2.3869 -13.0613 2.2172 -9.3045 -26.7525 0.0000 0.0000 0.0000 5.6037 20.1133 -8.1260 -2.9243 -10.5715 30.8479 1.2872 -23.1850 -22.1501 -1.8265 -8.4949 24.2277 2.3629 -1.6754 10.7727 2.3389 -1.9177 1.4293 1.3900 -1.0055 -4.5420 -3.3852 -2.1648 -11.6340 -0.8158 -3.8679 36.4112 -0.4803 -2.8012 14.5298 0.0000 -0.0000 0.0000 7.2978 2.158 -25.657 18.3685 -28.6264 4.7244 28.6348 2.0672 -15.4532 0.0 0.0 0.0 -7.1250 0.0 0.0 0.9544 47.4607 -0.058 0.0000 -0.0000 0.0000 -9.2151 1.2267 5.2135 -22.8650 -33.9409 -7.0628 -26.0941 -8.6514 -25.0087 0.0 0.0 0.0 7.1250 0.0 -0.0 2.1008 2.5469 2.0068
11.4579 17.9133 24.2985 -357.3760 -93.7809 359.4840 0.0000 0.0000 0.0000 -12.1696 -3.0223 -9.8084 1.6632 8.1263 23.0983 0.5384 -1.9441 -13.3287 2.3369 -9.5352 -27.4842 0.0000 0.0000 0.0000 5.5690 19.8066 -8.9218 -3.0549 -10.7834 31.5529 1.0370 -22.4582 -23.3021 -2.0367 -8.9422 25.6146 2.1714 -1.7326 10.5255 2.5517 -2.0206 1.4630 1.7244 -1.0531 -4.3547 -3.5151 -2.0934 -11.7942 -1.2094 -3.5396 36.2299 -0.5650 -2.7208 14.4718 -0.0000 0.0000 0.0000 6.9929 1.8848 -25.0163 18.5220 -28.8204 4.7982 29.354 2.3766 -14.9288 0.0 0.0 0.0 -7.1250 0.0 0.0 1.7087 46.9811 -0.0836 -0.0000 0.0000 0.0000 -9.5541 1.2578 6.0889 -22.7026 -33.762 -6.9723 -26.5464 -8.8636 -24.6507 0.0 0.0 0.0 7.1250 0.0 -0.0 1.7769 2.8338 1.6877
11.4675 17.9167 24.4125 -357.2660 -93.8893 359.6320 0.0000 0.0000 0.0000 -12.5843 -3.4477 -10.3262 1.7461 8.3158 23.6775 0.5464 -1.4749 -13.5335 2.3367 -9.5347 -27.4827 0.0000 0.0000 0.0000 5.5812 19.4126 -9.8856 -3.2299 -11.0583 32.4767 0.8218 -21.2618 -23.1394 -1.8785 -8.6082 24.5772 2.4155 -1.6121 10.3676 2.3952 -1.8408 1.4287 1.3938 -0.9673 -4.3177 -3.3852 -2.1734 -11.7040 -1.2641 -3.6502 36.0275 -0.6180 -2.7494 14.3533 -0.0000 0.0000 0.0000 7.2737 1.7021 -25.058 18.7617 -29.1215 4.9143 27.0725 1.5658 -14.1532 0.0 0.0 0.0 -7.1250 0.0 0.0 -0.3702 45.792 0.0072 -0.0000 0.0000 0.0000 -9.3327 1.4836 6.1969 -22.6112 -33.6609 -6.9216 -26.1423 -8.6515 -24.5063 0.0 0.0 0.0 7.1250 0.0 -0.0 2.0034 3.0722 1.8943
11.4739 17.9195 24.5171 -354.1800 -94.0757 356.5840 0.0000 0.0000 0.0000 -12.7413 -3.7332 -10.5275 1.8137 8.4667 24.1407 0.5470 -1.3252 -13.5770 2.1317 -9.1353 -26.2194 0.0000 0.0000 0.0000 5.9840 18.8243 -10.7940 -3.4620 -11.4078 33.6679 0.5840 -19.6696 -22.6357 -1.6886 -8.1848 23.2769 2.7065 -1.4844 10.4515 2.3671 -1.6363 1.4149 1.1755 -0.8715 -4.3885 -3.2940 -2.1859 -11.6333 -1.3154 -3.6632 35.9319 -0.6516 -2.7456 14.2892 0.0000 -0.0000 0.0000 7.5744 1.7542 -25.3729 19.1192 -29.5665 5.0895 29.4811 2.9629 -15.759 0.0 0.0 0.0 -7.1250 0.0 0.0 1.7386 47.9337 -0.1259 0.0000 -0.0000 0.0000 -9.3679 1.7558 6.431 -22.4961 -33.5331 -6.8579 -24.6911 -8.4406 -24.8662 0.0 0.0 0.0 7.1250 0.0 -0.0 2.9346 2.9841 2.7816
11.4834 17.9197 24.6053 -355.8240 -94.1103 358.1480 0.0000 0.0000 0.0000 -13.2078 -4.2431 -10.5492 1.8761 8.6030 24.5612 0.5395 -1.0583 -13.5506 1.9131 -8.6827 -24.8077 0.0000 0.0000 0.0000 6.1459 18.3982 -11.5328 -3.7432 -11.8106 35.0654 0.2186 -17.6741 -23.0140 -1.8072 -8.4525 24.0971 2.5045 -1.3066 10.6681 2.3159 -1.4174 1.4482 1.2100 -0.7606 -4.4703 -3.4180 -2.2501 -11.7068 -1.1786 -3.7527 35.8993 -0.5877 -2.7758 14.2989 -0.0000 0.0000 0.0000 7.9629 1.7261 -25.9144 19.4948 -30.0289 5.2762 30.1827 2.1746 -14.9658 0.0 0.0 0.0 -7.1250 0.0 0.0 2.5041 47.148 -0.1328 -0.0000 0.0000 0.0000 -9.4915 1.9812 6.8339 -22.2663 -33.2766 -6.7313 -24.7077 -8.672 -25.1731 0.0 0.0 0.0 7.1250 0.0 -0.0 2.9637 2.6566 2.827
11.5065 17.9215 24.6912 -358.8280 -94.1661 361.1520 0.0000 0.0000 0.0000 -13.7365 -4.6730 -10.6798 1.9291 8.7168 24.9135 0.5382 -0.7589 -13.6180 1.7628 -8.3535 -23.7932 0.0000 0.0000 0.0000 6.3138 18.1155 -12.4225 -4.0711 -12.2545 36.6383 -0.0664 -15.9333 -23.2449 -1.7419 -8.3064 23.6487 2.2320 -1.1135 10.9626 2.1896 -1.1854 1.4579 1.2050 -0.6420 -4.6214 -3.4425 -2.3541 -11.7997 -1.1131 -3.8961 35.8283 -0.5777 -2.8231 14.2916 0.0000 0.0000 0.0000 8.2332 1.5684 -25.9533 19.8248 -30.4307 5.4423 31.915 3.4134 -16.1995 0.0 0.0 0.0 -7.1250 0.0 0.0 4.0917 48.8299 -0.3871 0.0000 0.0000 0.0000 -9.4541 1.9694 6.8898 -21.8926 -32.8554 -6.5275 -25.5786 -8.3745 -25.0058 0.0 0.0 0.0 7.1250 0.0 -0.0 2.4132 2.6569 2.3008
11.5219 17.9246 24.7789 -360.0340 -94.4066 362.5340 0.0000 0.0000 0.0000 -14.1633 -4.9446 -10.9287 1.9647 8.7922 25.1474 0.5343 -0.3682 -13.6882 1.7346 -8.2900 -23.5984 0.0000 0.0000 0.0000 6.5989 18.0005 -13.5288 -4.4320 -12.7141 38.3074 -0.1921 -14.7276 -22.8520 -1.4414 -7.5900 21.4755 2.1544 -0.9397 10.9672 2.0631 -0.9667 1.4481 1.0841 -0.5325 -4.6359 -3.4525 -2.3790 -11.8426 -1.2014 -3.8717 35.7173 -0.6047 -2.8183 14.2481 -0.0000 -0.0000 0.0000 8.4241 1.4249 -25.5999 20.1133 -30.7786 5.5892 31.1744 2.8665 -15.6635 0.0 0.0 0.0 -7.1250 0.0 0.0 3.4058 48.0958 -0.2604 -0.0000 -0.0000 0.0000 -9.4287 1.9771 7.3162 -21.6356 -32.5628 -6.3886 -25.7257 -8.3788 -24.8526 0.0 0.0 0.0 7.1250 0.0 -0.0 2.3035 2.7894 2.1904
11.5334 17.9260 24.8486 -359.9060 -94.6440 362.4540 0.0000 0.0000 0.0000 -14.4468 -4.9068 -11.0823 1.9892 8.8435 25.3070 0.5298 -0.0354 -13.7413 1.8187 -8.4778 -24.1749 0.0000 0.0000 0.0000 7.1221 18.0414 -14.3821 -4.8060 -13.1620 39.9779 -0.3372 -13.6127 -22.8557 -1.2568 -7.1070 20.0327 1.9152 -0.8156 11.0513 2.0714 -0.8274 1.4567 1.2083 -0.4596 -4.6704 -3.6887 -2.3336 -11.8317 -1.1925 -3.7347 35.6811 -0.5373 -2.7881 14.2348 0.0000 -0.0000 0.0000 8.493 1.4846 -25.232 20.4973 -31.2368 5.787 31.1426 2.515 -15.632 0.0 0.0 0.0 -7.1250 0.0 0.0 3.3773 48.054 -0.2547 0.0000 -0.0000 0.0000 -9.3899 1.9559 7.9261 -21.3734 -32.2616 -6.2481 -25.0336 -8.2506 -24.9773 0.0 0.0 0.0 7.1250 0.0 -0.0 2.7405 2.7981 2.6065
11.5440 17.9285 24.9137 -361.8040 -94.6835 364.3130 0.0000 0.0000 0.0000 -14.8870 -5.0039 -11.1231 2.0062 8.8789 25.4174 0.5132 0.3358 -13.6605 1.9315 -8.7219 -24.9293 0.0000 0.0000 0.0000 7.5639 17.8869 -15.0456 -5.1653 -13.5676 41.5320 -0.5837 -12.2415 -23.5800 -1.2069 -6.9697 19.6255 1.5625 -0.7029 11.1598 2.0033 -0.7203 1.4904 1.3212 -0.4007 -4.6927 -3.8475 -2.3495 -11.5902 -1.0464 -3.7577 35.4506 -0.4417 -2.7942 14.0831 0.0000 0.0000 0.0000 8.6651 1.526 -25.0432 20.8555 -31.6593 5.9739 30.9779 1.8447 -15.1447 0.0 0.0 0.0 -7.1250 0.0 0.0 3.2591 47.4732 -0.1991 0.0000 0.0000 0.0000 -9.2256 1.9177 8.1393 -21.1887 -32.0479 -6.1497 -24.7387 -7.9853 -25.1936 0.0 0.0 0.0 7.1250 0.0 -0.0 2.9475 2.6288 2.813
